<svg xmlns="http://www.w3.org/2000/svg" version="1.1" xmlns:xlink="http://www.w3.org/1999/xlink" xmlns:svgjs="http://svgjs.dev/svgjs" width="2560" height="1440" preserveAspectRatio="none" viewBox="0 0 2560 1440"><g mask="url(&quot;#SvgjsMask1165&quot;)" fill="none"><rect width="2560" height="1440" x="0" y="0" fill="#0e2a47"></rect><g mask="url(&quot;#SvgjsMask1167&quot;)"><path d="M1317.5 1348.5L1286.5 1317.5L1286.5 1286.5M1286.5 1007.5L1317.5 976.5L1317.5 945.5M1286.5 1038.5L1255.5 1007.5L1255.5 976.5L1255.5 945.5L1255.5 914.5L1255.5 883.5L1255.5 852.5M1317.5 1286.5L1317.5 1255.5M1286.5 1472.5L1286.5 1441.5L1286.5 1410.5L1286.5 1379.5L1317.5 1348.5L1317.5 1317.5L1317.5 1286.5L1286.5 1255.5L1286.5 1224.5L1286.5 1193.5L1286.5 1162.5L1286.5 1131.5L1286.5 1100.5L1286.5 1069.5L1286.5 1038.5L1286.5 1007.5L1286.5 976.5L1286.5 945.5L1286.5 914.5" stroke="url(&quot;#SvgjsLinearGradient1166&quot;)" stroke-width="5.17"></path><path d="M1278.75 914.5 a7.75 7.75 0 1 0 15.5 0 a7.75 7.75 0 1 0 -15.5 0zM1278.75 1286.5 a7.75 7.75 0 1 0 15.5 0 a7.75 7.75 0 1 0 -15.5 0zM1309.75 945.5 a7.75 7.75 0 1 0 15.5 0 a7.75 7.75 0 1 0 -15.5 0zM1247.75 852.5 a7.75 7.75 0 1 0 15.5 0 a7.75 7.75 0 1 0 -15.5 0zM1309.75 1255.5 a7.75 7.75 0 1 0 15.5 0 a7.75 7.75 0 1 0 -15.5 0z" fill="url(&quot;#SvgjsLinearGradient1166&quot;)"></path><path d="M1224.5 1441.5L1255.5 1410.5L1255.5 1379.5L1255.5 1348.5M1255.5 1472.5L1224.5 1441.5L1224.5 1410.5" stroke="url(&quot;#SvgjsLinearGradient1166&quot;)" stroke-width="5.17"></path><path d="M1216.75 1410.5 a7.75 7.75 0 1 0 15.5 0 a7.75 7.75 0 1 0 -15.5 0zM1247.75 1348.5 a7.75 7.75 0 1 0 15.5 0 a7.75 7.75 0 1 0 -15.5 0z" fill="url(&quot;#SvgjsLinearGradient1166&quot;)"></path><path d="M1348.5 1224.5L1317.5 1193.5M1348.5 1162.5L1317.5 1131.5L1317.5 1100.5L1317.5 1069.5L1317.5 1038.5M1348.5 1410.5L1317.5 1379.5M1317.5 1472.5L1317.5 1441.5L1348.5 1410.5L1348.5 1379.5L1348.5 1348.5L1348.5 1317.5L1348.5 1286.5L1348.5 1255.5L1348.5 1224.5L1348.5 1193.5L1348.5 1162.5L1348.5 1131.5L1348.5 1100.5L1348.5 1069.5L1348.5 1038.5" stroke="url(&quot;#SvgjsLinearGradient1166&quot;)" stroke-width="5.17"></path><path d="M1340.75 1038.5 a7.75 7.75 0 1 0 15.5 0 a7.75 7.75 0 1 0 -15.5 0zM1309.75 1193.5 a7.75 7.75 0 1 0 15.5 0 a7.75 7.75 0 1 0 -15.5 0zM1309.75 1038.5 a7.75 7.75 0 1 0 15.5 0 a7.75 7.75 0 1 0 -15.5 0zM1309.75 1379.5 a7.75 7.75 0 1 0 15.5 0 a7.75 7.75 0 1 0 -15.5 0z" fill="url(&quot;#SvgjsLinearGradient1166&quot;)"></path><path d="M1441.5 759.5L1441.5 728.5L1441.5 697.5L1410.5 666.5L1410.5 635.5L1410.5 604.5L1410.5 573.5M1441.5 790.5L1410.5 759.5L1379.5 728.5L1348.5 697.5L1317.5 666.5L1317.5 635.5M1441.5 883.5L1410.5 852.5M1441.5 914.5L1410.5 883.5L1379.5 852.5M1441.5 945.5L1410.5 914.5L1379.5 883.5L1348.5 852.5M1410.5 728.5L1410.5 697.5M1348.5 1472.5L1348.5 1441.5L1379.5 1410.5L1379.5 1379.5L1379.5 1348.5L1379.5 1317.5L1379.5 1286.5L1379.5 1255.5L1379.5 1224.5L1379.5 1193.5L1379.5 1162.5L1379.5 1131.5L1410.5 1100.5L1410.5 1069.5L1410.5 1038.5L1410.5 1007.5L1410.5 976.5L1441.5 945.5L1441.5 914.5L1441.5 883.5L1441.5 852.5L1441.5 821.5L1441.5 790.5L1441.5 759.5L1410.5 728.5L1379.5 697.5" stroke="url(&quot;#SvgjsLinearGradient1166&quot;)" stroke-width="5.17"></path><path d="M1371.75 697.5 a7.75 7.75 0 1 0 15.5 0 a7.75 7.75 0 1 0 -15.5 0zM1402.75 573.5 a7.75 7.75 0 1 0 15.5 0 a7.75 7.75 0 1 0 -15.5 0zM1309.75 635.5 a7.75 7.75 0 1 0 15.5 0 a7.75 7.75 0 1 0 -15.5 0zM1402.75 852.5 a7.75 7.75 0 1 0 15.5 0 a7.75 7.75 0 1 0 -15.5 0zM1371.75 852.5 a7.75 7.75 0 1 0 15.5 0 a7.75 7.75 0 1 0 -15.5 0zM1340.75 852.5 a7.75 7.75 0 1 0 15.5 0 a7.75 7.75 0 1 0 -15.5 0zM1402.75 697.5 a7.75 7.75 0 1 0 15.5 0 a7.75 7.75 0 1 0 -15.5 0z" fill="url(&quot;#SvgjsLinearGradient1166&quot;)"></path><path d="M1162.5 1131.5L1193.5 1100.5L1193.5 1069.5L1193.5 1038.5M1162.5 1162.5L1193.5 1131.5L1224.5 1100.5L1224.5 1069.5L1224.5 1038.5L1224.5 1007.5M1162.5 1410.5L1193.5 1379.5M1162.5 1317.5L1193.5 1286.5L1193.5 1255.5M1193.5 1472.5L1193.5 1441.5L1162.5 1410.5L1162.5 1379.5L1162.5 1348.5L1162.5 1317.5L1162.5 1286.5L1162.5 1255.5L1162.5 1224.5L1162.5 1193.5L1162.5 1162.5L1162.5 1131.5L1162.5 1100.5L1162.5 1069.5L1162.5 1038.5L1162.5 1007.5L1162.5 976.5L1162.5 945.5" stroke="url(&quot;#SvgjsLinearGradient1166&quot;)" stroke-width="5.17"></path><path d="M1154.75 945.5 a7.75 7.75 0 1 0 15.5 0 a7.75 7.75 0 1 0 -15.5 0zM1185.75 1038.5 a7.75 7.75 0 1 0 15.5 0 a7.75 7.75 0 1 0 -15.5 0zM1216.75 1007.5 a7.75 7.75 0 1 0 15.5 0 a7.75 7.75 0 1 0 -15.5 0zM1185.75 1379.5 a7.75 7.75 0 1 0 15.5 0 a7.75 7.75 0 1 0 -15.5 0zM1185.75 1255.5 a7.75 7.75 0 1 0 15.5 0 a7.75 7.75 0 1 0 -15.5 0z" fill="url(&quot;#SvgjsLinearGradient1166&quot;)"></path><path d="M1472.5 914.5L1503.5 883.5L1503.5 852.5L1503.5 821.5L1503.5 790.5L1503.5 759.5L1503.5 728.5L1503.5 697.5L1503.5 666.5M1410.5 1162.5L1441.5 1131.5L1472.5 1100.5L1472.5 1069.5L1503.5 1038.5L1503.5 1007.5L1503.5 976.5M1472.5 1038.5L1441.5 1007.5L1441.5 976.5M1472.5 573.5L1503.5 542.5L1503.5 511.5L1503.5 480.5M1472.5 945.5L1503.5 914.5M1472.5 666.5L1441.5 635.5L1441.5 604.5L1441.5 573.5M1472.5 604.5L1503.5 573.5M1379.5 1472.5L1379.5 1441.5L1410.5 1410.5L1410.5 1379.5L1410.5 1348.5L1410.5 1317.5L1410.5 1286.5L1410.5 1255.5L1410.5 1224.5L1410.5 1193.5L1410.5 1162.5L1410.5 1131.5L1441.5 1100.5L1441.5 1069.5L1472.5 1038.5L1472.5 1007.5L1472.5 976.5L1472.5 945.5L1472.5 914.5L1472.5 883.5L1472.5 852.5L1472.5 821.5L1472.5 790.5L1472.5 759.5L1472.5 728.5L1472.5 697.5L1472.5 666.5L1472.5 635.5L1472.5 604.5L1472.5 573.5L1472.5 542.5" stroke="url(&quot;#SvgjsLinearGradient1166&quot;)" stroke-width="5.17"></path><path d="M1464.75 542.5 a7.75 7.75 0 1 0 15.5 0 a7.75 7.75 0 1 0 -15.5 0zM1495.75 666.5 a7.75 7.75 0 1 0 15.5 0 a7.75 7.75 0 1 0 -15.5 0zM1495.75 976.5 a7.75 7.75 0 1 0 15.5 0 a7.75 7.75 0 1 0 -15.5 0zM1433.75 976.5 a7.75 7.75 0 1 0 15.5 0 a7.75 7.75 0 1 0 -15.5 0zM1495.75 480.5 a7.75 7.75 0 1 0 15.5 0 a7.75 7.75 0 1 0 -15.5 0zM1495.75 914.5 a7.75 7.75 0 1 0 15.5 0 a7.75 7.75 0 1 0 -15.5 0zM1433.75 573.5 a7.75 7.75 0 1 0 15.5 0 a7.75 7.75 0 1 0 -15.5 0zM1495.75 573.5 a7.75 7.75 0 1 0 15.5 0 a7.75 7.75 0 1 0 -15.5 0z" fill="url(&quot;#SvgjsLinearGradient1166&quot;)"></path><path d="M1162.5 1472.5L1162.5 1441.5L1131.5 1410.5L1131.5 1379.5L1131.5 1348.5L1131.5 1317.5L1131.5 1286.5L1131.5 1255.5" stroke="url(&quot;#SvgjsLinearGradient1166&quot;)" stroke-width="5.17"></path><path d="M1123.75 1255.5 a7.75 7.75 0 1 0 15.5 0 a7.75 7.75 0 1 0 -15.5 0z" fill="url(&quot;#SvgjsLinearGradient1166&quot;)"></path><path d="M1441.5 1193.5L1441.5 1162.5M1441.5 1224.5L1472.5 1193.5L1503.5 1162.5L1503.5 1131.5L1503.5 1100.5M1441.5 1317.5L1472.5 1286.5L1472.5 1255.5L1472.5 1224.5M1410.5 1472.5L1410.5 1441.5L1441.5 1410.5L1441.5 1379.5L1441.5 1348.5L1441.5 1317.5L1441.5 1286.5L1441.5 1255.5L1441.5 1224.5L1441.5 1193.5L1472.5 1162.5" stroke="url(&quot;#SvgjsLinearGradient1166&quot;)" stroke-width="5.17"></path><path d="M1464.75 1162.5 a7.75 7.75 0 1 0 15.5 0 a7.75 7.75 0 1 0 -15.5 0zM1433.75 1162.5 a7.75 7.75 0 1 0 15.5 0 a7.75 7.75 0 1 0 -15.5 0zM1495.75 1100.5 a7.75 7.75 0 1 0 15.5 0 a7.75 7.75 0 1 0 -15.5 0zM1464.75 1224.5 a7.75 7.75 0 1 0 15.5 0 a7.75 7.75 0 1 0 -15.5 0z" fill="url(&quot;#SvgjsLinearGradient1166&quot;)"></path><path d="M1100.5 1348.5L1069.5 1317.5L1069.5 1286.5M1100.5 1224.5L1100.5 1193.5M1131.5 1131.5L1100.5 1100.5M1131.5 1472.5L1131.5 1441.5L1100.5 1410.5L1100.5 1379.5L1100.5 1348.5L1100.5 1317.5L1100.5 1286.5L1100.5 1255.5L1100.5 1224.5L1131.5 1193.5L1131.5 1162.5L1131.5 1131.5L1131.5 1100.5" stroke="url(&quot;#SvgjsLinearGradient1166&quot;)" stroke-width="5.17"></path><path d="M1123.75 1100.5 a7.75 7.75 0 1 0 15.5 0 a7.75 7.75 0 1 0 -15.5 0zM1061.75 1286.5 a7.75 7.75 0 1 0 15.5 0 a7.75 7.75 0 1 0 -15.5 0zM1092.75 1193.5 a7.75 7.75 0 1 0 15.5 0 a7.75 7.75 0 1 0 -15.5 0zM1092.75 1100.5 a7.75 7.75 0 1 0 15.5 0 a7.75 7.75 0 1 0 -15.5 0z" fill="url(&quot;#SvgjsLinearGradient1166&quot;)"></path><path d="M1534.5 1224.5L1503.5 1193.5M1534.5 852.5L1565.5 821.5M1534.5 759.5L1565.5 728.5L1565.5 697.5L1565.5 666.5L1565.5 635.5L1565.5 604.5L1565.5 573.5L1565.5 542.5L1565.5 511.5L1565.5 480.5M1503.5 387.5L1472.5 356.5M1534.5 883.5L1565.5 852.5L1596.5 821.5M1472.5 1348.5L1472.5 1317.5M1534.5 480.5L1534.5 449.5M1534.5 1193.5L1534.5 1162.5L1534.5 1131.5M1534.5 976.5L1565.5 945.5L1565.5 914.5M1441.5 1472.5L1441.5 1441.5L1472.5 1410.5L1472.5 1379.5L1472.5 1348.5L1503.5 1317.5L1503.5 1286.5L1503.5 1255.5L1534.5 1224.5L1534.5 1193.5L1565.5 1162.5L1565.5 1131.5L1534.5 1100.5L1534.5 1069.5L1534.5 1038.5L1534.5 1007.5L1534.5 976.5L1534.5 945.5L1534.5 914.5L1534.5 883.5L1534.5 852.5L1534.5 821.5L1534.5 790.5L1534.5 759.5L1534.5 728.5L1534.5 697.5L1534.5 666.5L1534.5 635.5L1534.5 604.5L1534.5 573.5L1534.5 542.5L1534.5 511.5L1534.5 480.5L1503.5 449.5L1503.5 418.5L1503.5 387.5L1503.5 356.5" stroke="url(&quot;#SvgjsLinearGradient1166&quot;)" stroke-width="5.17"></path><path d="M1495.75 356.5 a7.75 7.75 0 1 0 15.5 0 a7.75 7.75 0 1 0 -15.5 0zM1495.75 1193.5 a7.75 7.75 0 1 0 15.5 0 a7.75 7.75 0 1 0 -15.5 0zM1557.75 821.5 a7.75 7.75 0 1 0 15.5 0 a7.75 7.75 0 1 0 -15.5 0zM1557.75 480.5 a7.75 7.75 0 1 0 15.5 0 a7.75 7.75 0 1 0 -15.5 0zM1464.75 356.5 a7.75 7.75 0 1 0 15.5 0 a7.75 7.75 0 1 0 -15.5 0zM1588.75 821.5 a7.75 7.75 0 1 0 15.5 0 a7.75 7.75 0 1 0 -15.5 0zM1464.75 1317.5 a7.75 7.75 0 1 0 15.5 0 a7.75 7.75 0 1 0 -15.5 0zM1526.75 449.5 a7.75 7.75 0 1 0 15.5 0 a7.75 7.75 0 1 0 -15.5 0zM1526.75 1131.5 a7.75 7.75 0 1 0 15.5 0 a7.75 7.75 0 1 0 -15.5 0zM1557.75 914.5 a7.75 7.75 0 1 0 15.5 0 a7.75 7.75 0 1 0 -15.5 0z" fill="url(&quot;#SvgjsLinearGradient1166&quot;)"></path><path d="M1100.5 1472.5L1100.5 1441.5L1069.5 1410.5L1069.5 1379.5" stroke="url(&quot;#SvgjsLinearGradient1166&quot;)" stroke-width="5.17"></path><path d="M1061.75 1379.5 a7.75 7.75 0 1 0 15.5 0 a7.75 7.75 0 1 0 -15.5 0z" fill="url(&quot;#SvgjsLinearGradient1166&quot;)"></path><path d="M1596.5 1069.5L1565.5 1038.5L1565.5 1007.5L1565.5 976.5L1596.5 945.5M1472.5 1472.5L1472.5 1441.5L1503.5 1410.5L1503.5 1379.5L1503.5 1348.5L1534.5 1317.5L1534.5 1286.5L1534.5 1255.5L1565.5 1224.5L1565.5 1193.5L1596.5 1162.5L1596.5 1131.5L1596.5 1100.5L1596.5 1069.5L1596.5 1038.5" stroke="url(&quot;#SvgjsLinearGradient1166&quot;)" stroke-width="5.17"></path><path d="M1588.75 1038.5 a7.75 7.75 0 1 0 15.5 0 a7.75 7.75 0 1 0 -15.5 0zM1588.75 945.5 a7.75 7.75 0 1 0 15.5 0 a7.75 7.75 0 1 0 -15.5 0z" fill="url(&quot;#SvgjsLinearGradient1166&quot;)"></path><path d="M1069.5 1472.5L1069.5 1441.5" stroke="url(&quot;#SvgjsLinearGradient1166&quot;)" stroke-width="5.17"></path><path d="M1061.75 1441.5 a7.75 7.75 0 1 0 15.5 0 a7.75 7.75 0 1 0 -15.5 0z" fill="url(&quot;#SvgjsLinearGradient1166&quot;)"></path><path d="M1627.5 914.5L1658.5 883.5L1689.5 852.5L1689.5 821.5L1689.5 790.5L1689.5 759.5L1689.5 728.5M1534.5 1379.5L1565.5 1348.5L1596.5 1317.5L1596.5 1286.5L1596.5 1255.5M1596.5 1224.5L1627.5 1193.5M1627.5 945.5L1658.5 914.5M1627.5 976.5L1658.5 945.5M1503.5 1472.5L1503.5 1441.5L1534.5 1410.5L1534.5 1379.5L1534.5 1348.5L1565.5 1317.5L1565.5 1286.5L1565.5 1255.5L1596.5 1224.5L1596.5 1193.5L1627.5 1162.5L1627.5 1131.5L1627.5 1100.5L1627.5 1069.5L1627.5 1038.5L1627.5 1007.5L1627.5 976.5L1627.5 945.5L1627.5 914.5L1627.5 883.5L1658.5 852.5" stroke="url(&quot;#SvgjsLinearGradient1166&quot;)" stroke-width="5.17"></path><path d="M1650.75 852.5 a7.75 7.75 0 1 0 15.5 0 a7.75 7.75 0 1 0 -15.5 0zM1681.75 728.5 a7.75 7.75 0 1 0 15.5 0 a7.75 7.75 0 1 0 -15.5 0zM1588.75 1255.5 a7.75 7.75 0 1 0 15.5 0 a7.75 7.75 0 1 0 -15.5 0zM1619.75 1193.5 a7.75 7.75 0 1 0 15.5 0 a7.75 7.75 0 1 0 -15.5 0zM1650.75 914.5 a7.75 7.75 0 1 0 15.5 0 a7.75 7.75 0 1 0 -15.5 0zM1650.75 945.5 a7.75 7.75 0 1 0 15.5 0 a7.75 7.75 0 1 0 -15.5 0z" fill="url(&quot;#SvgjsLinearGradient1166&quot;)"></path><path d="M1069.5 1193.5L1038.5 1162.5M1069.5 1100.5L1069.5 1069.5L1069.5 1038.5L1069.5 1007.5L1069.5 976.5M1069.5 1162.5L1100.5 1131.5M1038.5 1472.5L1038.5 1441.5L1038.5 1410.5L1038.5 1379.5L1038.5 1348.5L1038.5 1317.5L1038.5 1286.5L1038.5 1255.5L1038.5 1224.5L1069.5 1193.5L1069.5 1162.5L1069.5 1131.5L1069.5 1100.5L1100.5 1069.5" stroke="url(&quot;#SvgjsLinearGradient1166&quot;)" stroke-width="5.17"></path><path d="M1092.75 1069.5 a7.75 7.75 0 1 0 15.5 0 a7.75 7.75 0 1 0 -15.5 0zM1030.75 1162.5 a7.75 7.75 0 1 0 15.5 0 a7.75 7.75 0 1 0 -15.5 0zM1061.75 976.5 a7.75 7.75 0 1 0 15.5 0 a7.75 7.75 0 1 0 -15.5 0zM1092.75 1131.5 a7.75 7.75 0 1 0 15.5 0 a7.75 7.75 0 1 0 -15.5 0z" fill="url(&quot;#SvgjsLinearGradient1166&quot;)"></path><path d="M1534.5 1472.5L1534.5 1441.5L1565.5 1410.5" stroke="url(&quot;#SvgjsLinearGradient1166&quot;)" stroke-width="5.17"></path><path d="M1557.75 1410.5 a7.75 7.75 0 1 0 15.5 0 a7.75 7.75 0 1 0 -15.5 0z" fill="url(&quot;#SvgjsLinearGradient1166&quot;)"></path><path d="M1038.5 1007.5L1007.5 976.5L1007.5 945.5M1038.5 945.5L1069.5 914.5L1069.5 883.5L1069.5 852.5L1100.5 821.5L1100.5 790.5M1038.5 852.5L1038.5 821.5L1038.5 790.5L1038.5 759.5M1038.5 1069.5L1007.5 1038.5M1007.5 1131.5L1007.5 1100.5L1007.5 1069.5M1007.5 1472.5L1007.5 1441.5L1007.5 1410.5L1007.5 1379.5L1007.5 1348.5L1007.5 1317.5L1007.5 1286.5L1007.5 1255.5L1007.5 1224.5L1007.5 1193.5L1007.5 1162.5L1007.5 1131.5L1038.5 1100.5L1038.5 1069.5L1038.5 1038.5L1038.5 1007.5L1038.5 976.5L1038.5 945.5L1038.5 914.5L1038.5 883.5L1038.5 852.5L1069.5 821.5" stroke="url(&quot;#SvgjsLinearGradient1166&quot;)" stroke-width="5.17"></path><path d="M1061.75 821.5 a7.75 7.75 0 1 0 15.5 0 a7.75 7.75 0 1 0 -15.5 0zM999.75 945.5 a7.75 7.75 0 1 0 15.5 0 a7.75 7.75 0 1 0 -15.5 0zM1092.75 790.5 a7.75 7.75 0 1 0 15.5 0 a7.75 7.75 0 1 0 -15.5 0zM1030.75 759.5 a7.75 7.75 0 1 0 15.5 0 a7.75 7.75 0 1 0 -15.5 0zM999.75 1038.5 a7.75 7.75 0 1 0 15.5 0 a7.75 7.75 0 1 0 -15.5 0zM999.75 1069.5 a7.75 7.75 0 1 0 15.5 0 a7.75 7.75 0 1 0 -15.5 0z" fill="url(&quot;#SvgjsLinearGradient1166&quot;)"></path><path d="M1658.5 1007.5L1658.5 976.5M1627.5 1379.5L1596.5 1348.5M1627.5 1255.5L1627.5 1224.5M1565.5 1472.5L1565.5 1441.5L1596.5 1410.5L1627.5 1379.5L1627.5 1348.5L1627.5 1317.5L1627.5 1286.5L1627.5 1255.5L1658.5 1224.5L1658.5 1193.5L1658.5 1162.5L1658.5 1131.5L1658.5 1100.5L1658.5 1069.5L1658.5 1038.5L1658.5 1007.5L1689.5 976.5L1689.5 945.5L1689.5 914.5" stroke="url(&quot;#SvgjsLinearGradient1166&quot;)" stroke-width="5.17"></path><path d="M1681.75 914.5 a7.75 7.75 0 1 0 15.5 0 a7.75 7.75 0 1 0 -15.5 0zM1650.75 976.5 a7.75 7.75 0 1 0 15.5 0 a7.75 7.75 0 1 0 -15.5 0zM1588.75 1348.5 a7.75 7.75 0 1 0 15.5 0 a7.75 7.75 0 1 0 -15.5 0zM1619.75 1224.5 a7.75 7.75 0 1 0 15.5 0 a7.75 7.75 0 1 0 -15.5 0z" fill="url(&quot;#SvgjsLinearGradient1166&quot;)"></path><path d="M976.5 1379.5L945.5 1348.5L945.5 1317.5M976.5 1007.5L945.5 976.5L945.5 945.5L945.5 914.5L945.5 883.5M976.5 1038.5L945.5 1007.5M976.5 1162.5L945.5 1131.5L945.5 1100.5M976.5 1069.5L945.5 1038.5L914.5 1007.5L914.5 976.5L914.5 945.5M976.5 1472.5L976.5 1441.5L976.5 1410.5L976.5 1379.5L976.5 1348.5L976.5 1317.5L976.5 1286.5L976.5 1255.5L976.5 1224.5L976.5 1193.5L976.5 1162.5L976.5 1131.5L976.5 1100.5L976.5 1069.5L976.5 1038.5L976.5 1007.5L976.5 976.5L976.5 945.5L1007.5 914.5L1007.5 883.5L1007.5 852.5" stroke="url(&quot;#SvgjsLinearGradient1166&quot;)" stroke-width="5.17"></path><path d="M999.75 852.5 a7.75 7.75 0 1 0 15.5 0 a7.75 7.75 0 1 0 -15.5 0zM937.75 1317.5 a7.75 7.75 0 1 0 15.5 0 a7.75 7.75 0 1 0 -15.5 0zM937.75 883.5 a7.75 7.75 0 1 0 15.5 0 a7.75 7.75 0 1 0 -15.5 0zM937.75 1007.5 a7.75 7.75 0 1 0 15.5 0 a7.75 7.75 0 1 0 -15.5 0zM937.75 1100.5 a7.75 7.75 0 1 0 15.5 0 a7.75 7.75 0 1 0 -15.5 0zM906.75 945.5 a7.75 7.75 0 1 0 15.5 0 a7.75 7.75 0 1 0 -15.5 0z" fill="url(&quot;#SvgjsLinearGradient1166&quot;)"></path><path d="M1689.5 1038.5L1689.5 1007.5M1689.5 1131.5L1720.5 1100.5M1689.5 1069.5L1720.5 1038.5M1596.5 1472.5L1596.5 1441.5L1627.5 1410.5L1658.5 1379.5L1658.5 1348.5L1658.5 1317.5L1658.5 1286.5L1658.5 1255.5L1689.5 1224.5L1689.5 1193.5L1689.5 1162.5L1689.5 1131.5L1689.5 1100.5L1689.5 1069.5L1689.5 1038.5L1720.5 1007.5L1720.5 976.5L1720.5 945.5L1720.5 914.5" stroke="url(&quot;#SvgjsLinearGradient1166&quot;)" stroke-width="5.17"></path><path d="M1712.75 914.5 a7.75 7.75 0 1 0 15.5 0 a7.75 7.75 0 1 0 -15.5 0zM1681.75 1007.5 a7.75 7.75 0 1 0 15.5 0 a7.75 7.75 0 1 0 -15.5 0zM1712.75 1100.5 a7.75 7.75 0 1 0 15.5 0 a7.75 7.75 0 1 0 -15.5 0zM1712.75 1038.5 a7.75 7.75 0 1 0 15.5 0 a7.75 7.75 0 1 0 -15.5 0z" fill="url(&quot;#SvgjsLinearGradient1166&quot;)"></path><path d="M945.5 1472.5L945.5 1441.5L945.5 1410.5L914.5 1379.5L914.5 1348.5L914.5 1317.5" stroke="url(&quot;#SvgjsLinearGradient1166&quot;)" stroke-width="5.17"></path><path d="M906.75 1317.5 a7.75 7.75 0 1 0 15.5 0 a7.75 7.75 0 1 0 -15.5 0z" fill="url(&quot;#SvgjsLinearGradient1166&quot;)"></path><path d="M1720.5 852.5L1751.5 821.5M1720.5 449.5L1751.5 418.5L1751.5 387.5L1720.5 356.5L1720.5 325.5L1720.5 294.5L1720.5 263.5L1720.5 232.5M1720.5 480.5L1751.5 449.5M1658.5 356.5L1627.5 325.5L1627.5 294.5M1720.5 542.5L1751.5 511.5M1720.5 573.5L1751.5 542.5M1720.5 666.5L1751.5 635.5L1751.5 604.5L1751.5 573.5L1782.5 542.5L1782.5 511.5L1782.5 480.5L1782.5 449.5M1720.5 759.5L1751.5 728.5L1751.5 697.5L1751.5 666.5L1782.5 635.5L1782.5 604.5L1782.5 573.5M1720.5 511.5L1689.5 480.5L1689.5 449.5L1689.5 418.5L1658.5 387.5L1627.5 356.5L1596.5 325.5L1596.5 294.5L1596.5 263.5L1596.5 232.5M1627.5 1472.5L1627.5 1441.5L1658.5 1410.5L1689.5 1379.5L1689.5 1348.5L1689.5 1317.5L1689.5 1286.5L1689.5 1255.5L1720.5 1224.5L1720.5 1193.5L1720.5 1162.5L1751.5 1131.5L1751.5 1100.5L1751.5 1069.5L1751.5 1038.5L1751.5 1007.5L1751.5 976.5L1751.5 945.5L1751.5 914.5L1720.5 883.5L1720.5 852.5L1720.5 821.5L1720.5 790.5L1720.5 759.5L1720.5 728.5L1720.5 697.5L1720.5 666.5L1720.5 635.5L1720.5 604.5L1720.5 573.5L1720.5 542.5L1720.5 511.5L1720.5 480.5L1720.5 449.5L1720.5 418.5L1689.5 387.5L1658.5 356.5L1658.5 325.5" stroke="url(&quot;#SvgjsLinearGradient1166&quot;)" stroke-width="5.17"></path><path d="M1650.75 325.5 a7.75 7.75 0 1 0 15.5 0 a7.75 7.75 0 1 0 -15.5 0zM1743.75 821.5 a7.75 7.75 0 1 0 15.5 0 a7.75 7.75 0 1 0 -15.5 0zM1712.75 232.5 a7.75 7.75 0 1 0 15.5 0 a7.75 7.75 0 1 0 -15.5 0zM1743.75 449.5 a7.75 7.75 0 1 0 15.5 0 a7.75 7.75 0 1 0 -15.5 0zM1619.75 294.5 a7.75 7.75 0 1 0 15.5 0 a7.75 7.75 0 1 0 -15.5 0zM1743.75 511.5 a7.75 7.75 0 1 0 15.5 0 a7.75 7.75 0 1 0 -15.5 0zM1743.75 542.5 a7.75 7.75 0 1 0 15.5 0 a7.75 7.75 0 1 0 -15.5 0zM1774.75 449.5 a7.75 7.75 0 1 0 15.5 0 a7.75 7.75 0 1 0 -15.5 0zM1774.75 573.5 a7.75 7.75 0 1 0 15.5 0 a7.75 7.75 0 1 0 -15.5 0zM1588.75 232.5 a7.75 7.75 0 1 0 15.5 0 a7.75 7.75 0 1 0 -15.5 0z" fill="url(&quot;#SvgjsLinearGradient1166&quot;)"></path><path d="M852.5 1255.5L883.5 1224.5L914.5 1193.5L914.5 1162.5M852.5 1286.5L883.5 1255.5L914.5 1224.5L945.5 1193.5M883.5 1317.5L883.5 1286.5M914.5 1472.5L914.5 1441.5L914.5 1410.5L883.5 1379.5L883.5 1348.5L883.5 1317.5L852.5 1286.5L852.5 1255.5L852.5 1224.5L852.5 1193.5" stroke="url(&quot;#SvgjsLinearGradient1166&quot;)" stroke-width="5.17"></path><path d="M844.75 1193.5 a7.75 7.75 0 1 0 15.5 0 a7.75 7.75 0 1 0 -15.5 0zM906.75 1162.5 a7.75 7.75 0 1 0 15.5 0 a7.75 7.75 0 1 0 -15.5 0zM937.75 1193.5 a7.75 7.75 0 1 0 15.5 0 a7.75 7.75 0 1 0 -15.5 0zM875.75 1286.5 a7.75 7.75 0 1 0 15.5 0 a7.75 7.75 0 1 0 -15.5 0z" fill="url(&quot;#SvgjsLinearGradient1166&quot;)"></path><path d="M852.5 914.5L883.5 883.5L883.5 852.5L883.5 821.5L883.5 790.5L883.5 759.5L883.5 728.5L883.5 697.5L883.5 666.5M852.5 976.5L821.5 945.5L821.5 914.5L790.5 883.5L790.5 852.5L790.5 821.5M852.5 1410.5L821.5 1379.5M852.5 1007.5L821.5 976.5M852.5 1069.5L821.5 1038.5L821.5 1007.5M821.5 666.5L790.5 635.5L790.5 604.5L790.5 573.5L790.5 542.5L759.5 511.5L759.5 480.5L728.5 449.5L728.5 418.5M852.5 1100.5L883.5 1069.5L883.5 1038.5L883.5 1007.5L883.5 976.5L883.5 945.5L883.5 914.5L914.5 883.5L914.5 852.5L914.5 821.5L914.5 790.5M759.5 418.5L759.5 387.5M790.5 480.5L790.5 449.5L790.5 418.5L821.5 387.5L821.5 356.5M883.5 1472.5L883.5 1441.5L852.5 1410.5L852.5 1379.5L852.5 1348.5L852.5 1317.5L821.5 1286.5L821.5 1255.5L821.5 1224.5L821.5 1193.5L852.5 1162.5L852.5 1131.5L852.5 1100.5L852.5 1069.5L852.5 1038.5L852.5 1007.5L852.5 976.5L852.5 945.5L852.5 914.5L852.5 883.5L852.5 852.5L852.5 821.5L852.5 790.5L852.5 759.5L821.5 728.5L821.5 697.5L821.5 666.5L821.5 635.5L821.5 604.5L821.5 573.5L821.5 542.5L790.5 511.5L790.5 480.5L759.5 449.5L759.5 418.5L790.5 387.5" stroke="url(&quot;#SvgjsLinearGradient1166&quot;)" stroke-width="5.17"></path><path d="M782.75 387.5 a7.75 7.75 0 1 0 15.5 0 a7.75 7.75 0 1 0 -15.5 0zM875.75 666.5 a7.75 7.75 0 1 0 15.5 0 a7.75 7.75 0 1 0 -15.5 0zM782.75 821.5 a7.75 7.75 0 1 0 15.5 0 a7.75 7.75 0 1 0 -15.5 0zM813.75 1379.5 a7.75 7.75 0 1 0 15.5 0 a7.75 7.75 0 1 0 -15.5 0zM813.75 976.5 a7.75 7.75 0 1 0 15.5 0 a7.75 7.75 0 1 0 -15.5 0zM813.75 1007.5 a7.75 7.75 0 1 0 15.5 0 a7.75 7.75 0 1 0 -15.5 0zM720.75 418.5 a7.75 7.75 0 1 0 15.5 0 a7.75 7.75 0 1 0 -15.5 0zM906.75 790.5 a7.75 7.75 0 1 0 15.5 0 a7.75 7.75 0 1 0 -15.5 0zM751.75 387.5 a7.75 7.75 0 1 0 15.5 0 a7.75 7.75 0 1 0 -15.5 0zM813.75 356.5 a7.75 7.75 0 1 0 15.5 0 a7.75 7.75 0 1 0 -15.5 0z" fill="url(&quot;#SvgjsLinearGradient1166&quot;)"></path><path d="M1689.5 1472.5L1658.5 1441.5" stroke="url(&quot;#SvgjsLinearGradient1166&quot;)" stroke-width="5.17"></path><path d="M1650.75 1441.5 a7.75 7.75 0 1 0 15.5 0 a7.75 7.75 0 1 0 -15.5 0z" fill="url(&quot;#SvgjsLinearGradient1166&quot;)"></path><path d="M852.5 1472.5L821.5 1441.5" stroke="url(&quot;#SvgjsLinearGradient1166&quot;)" stroke-width="5.17"></path><path d="M813.75 1441.5 a7.75 7.75 0 1 0 15.5 0 a7.75 7.75 0 1 0 -15.5 0z" fill="url(&quot;#SvgjsLinearGradient1166&quot;)"></path><path d="M1720.5 1441.5L1689.5 1410.5M1720.5 1472.5L1720.5 1441.5L1720.5 1410.5" stroke="url(&quot;#SvgjsLinearGradient1166&quot;)" stroke-width="5.17"></path><path d="M1712.75 1410.5 a7.75 7.75 0 1 0 15.5 0 a7.75 7.75 0 1 0 -15.5 0zM1681.75 1410.5 a7.75 7.75 0 1 0 15.5 0 a7.75 7.75 0 1 0 -15.5 0z" fill="url(&quot;#SvgjsLinearGradient1166&quot;)"></path><path d="M1782.5 697.5L1782.5 666.5M1751.5 1224.5L1751.5 1193.5L1751.5 1162.5M1720.5 1286.5L1720.5 1255.5M1782.5 790.5L1751.5 759.5M1751.5 1472.5L1751.5 1441.5L1751.5 1410.5L1751.5 1379.5L1720.5 1348.5L1720.5 1317.5L1720.5 1286.5L1751.5 1255.5L1751.5 1224.5L1782.5 1193.5L1782.5 1162.5L1782.5 1131.5L1782.5 1100.5L1782.5 1069.5L1782.5 1038.5L1782.5 1007.5L1782.5 976.5L1782.5 945.5L1782.5 914.5L1782.5 883.5L1782.5 852.5L1782.5 821.5L1782.5 790.5L1782.5 759.5L1782.5 728.5L1782.5 697.5L1813.5 666.5L1813.5 635.5L1813.5 604.5L1813.5 573.5L1813.5 542.5L1813.5 511.5L1813.5 480.5L1813.5 449.5L1813.5 418.5" stroke="url(&quot;#SvgjsLinearGradient1166&quot;)" stroke-width="5.17"></path><path d="M1805.75 418.5 a7.75 7.75 0 1 0 15.5 0 a7.75 7.75 0 1 0 -15.5 0zM1774.75 666.5 a7.75 7.75 0 1 0 15.5 0 a7.75 7.75 0 1 0 -15.5 0zM1743.75 1162.5 a7.75 7.75 0 1 0 15.5 0 a7.75 7.75 0 1 0 -15.5 0zM1712.75 1255.5 a7.75 7.75 0 1 0 15.5 0 a7.75 7.75 0 1 0 -15.5 0zM1743.75 759.5 a7.75 7.75 0 1 0 15.5 0 a7.75 7.75 0 1 0 -15.5 0z" fill="url(&quot;#SvgjsLinearGradient1166&quot;)"></path><path d="M790.5 1286.5L759.5 1255.5M821.5 1348.5L790.5 1317.5L759.5 1286.5M790.5 1131.5L821.5 1100.5L821.5 1069.5M790.5 1379.5L790.5 1348.5L759.5 1317.5M790.5 1472.5L790.5 1441.5L790.5 1410.5L790.5 1379.5L821.5 1348.5L821.5 1317.5L790.5 1286.5L790.5 1255.5L790.5 1224.5L790.5 1193.5L790.5 1162.5L790.5 1131.5L790.5 1100.5L790.5 1069.5L790.5 1038.5L790.5 1007.5L790.5 976.5L790.5 945.5L790.5 914.5" stroke="url(&quot;#SvgjsLinearGradient1166&quot;)" stroke-width="5.17"></path><path d="M782.75 914.5 a7.75 7.75 0 1 0 15.5 0 a7.75 7.75 0 1 0 -15.5 0zM751.75 1255.5 a7.75 7.75 0 1 0 15.5 0 a7.75 7.75 0 1 0 -15.5 0zM751.75 1286.5 a7.75 7.75 0 1 0 15.5 0 a7.75 7.75 0 1 0 -15.5 0zM813.75 1069.5 a7.75 7.75 0 1 0 15.5 0 a7.75 7.75 0 1 0 -15.5 0zM751.75 1317.5 a7.75 7.75 0 1 0 15.5 0 a7.75 7.75 0 1 0 -15.5 0z" fill="url(&quot;#SvgjsLinearGradient1166&quot;)"></path><path d="M1813.5 883.5L1844.5 852.5M1813.5 976.5L1844.5 945.5L1844.5 914.5L1844.5 883.5M1813.5 821.5L1844.5 790.5L1844.5 759.5L1844.5 728.5L1844.5 697.5M1813.5 1100.5L1844.5 1069.5L1844.5 1038.5L1844.5 1007.5M1782.5 325.5L1751.5 294.5L1751.5 263.5L1751.5 232.5M1782.5 1379.5L1782.5 1348.5L1782.5 1317.5L1813.5 1286.5L1844.5 1255.5M1782.5 294.5L1813.5 263.5M1844.5 387.5L1844.5 356.5L1813.5 325.5L1813.5 294.5L1844.5 263.5M1813.5 1131.5L1844.5 1100.5L1875.5 1069.5L1875.5 1038.5L1875.5 1007.5M1813.5 1162.5L1844.5 1131.5L1875.5 1100.5M1782.5 1472.5L1782.5 1441.5L1782.5 1410.5L1782.5 1379.5L1751.5 1348.5L1751.5 1317.5L1751.5 1286.5L1782.5 1255.5L1782.5 1224.5L1813.5 1193.5L1813.5 1162.5L1813.5 1131.5L1813.5 1100.5L1813.5 1069.5L1813.5 1038.5L1813.5 1007.5L1813.5 976.5L1813.5 945.5L1813.5 914.5L1813.5 883.5L1813.5 852.5L1813.5 821.5L1813.5 790.5L1813.5 759.5L1813.5 728.5L1813.5 697.5L1844.5 666.5L1844.5 635.5L1844.5 604.5L1844.5 573.5L1844.5 542.5L1844.5 511.5L1844.5 480.5L1844.5 449.5L1844.5 418.5L1844.5 387.5L1813.5 356.5L1782.5 325.5L1782.5 294.5L1782.5 263.5L1782.5 232.5" stroke="url(&quot;#SvgjsLinearGradient1166&quot;)" stroke-width="5.17"></path><path d="M1774.75 232.5 a7.75 7.75 0 1 0 15.5 0 a7.75 7.75 0 1 0 -15.5 0zM1836.75 852.5 a7.75 7.75 0 1 0 15.5 0 a7.75 7.75 0 1 0 -15.5 0zM1836.75 883.5 a7.75 7.75 0 1 0 15.5 0 a7.75 7.75 0 1 0 -15.5 0zM1836.75 697.5 a7.75 7.75 0 1 0 15.5 0 a7.75 7.75 0 1 0 -15.5 0zM1836.75 1007.5 a7.75 7.75 0 1 0 15.5 0 a7.75 7.75 0 1 0 -15.5 0zM1743.75 232.5 a7.75 7.75 0 1 0 15.5 0 a7.75 7.75 0 1 0 -15.5 0zM1836.75 1255.5 a7.75 7.75 0 1 0 15.5 0 a7.75 7.75 0 1 0 -15.5 0zM1805.75 263.5 a7.75 7.75 0 1 0 15.5 0 a7.75 7.75 0 1 0 -15.5 0zM1836.75 263.5 a7.75 7.75 0 1 0 15.5 0 a7.75 7.75 0 1 0 -15.5 0zM1867.75 1007.5 a7.75 7.75 0 1 0 15.5 0 a7.75 7.75 0 1 0 -15.5 0zM1867.75 1100.5 a7.75 7.75 0 1 0 15.5 0 a7.75 7.75 0 1 0 -15.5 0z" fill="url(&quot;#SvgjsLinearGradient1166&quot;)"></path><path d="M759.5 1038.5L728.5 1007.5L728.5 976.5M759.5 1193.5L728.5 1162.5M759.5 1069.5L728.5 1038.5M759.5 1224.5L728.5 1193.5M759.5 1472.5L759.5 1441.5L759.5 1410.5L759.5 1379.5L728.5 1348.5L728.5 1317.5L728.5 1286.5L728.5 1255.5L759.5 1224.5L759.5 1193.5L759.5 1162.5L759.5 1131.5L759.5 1100.5L759.5 1069.5L759.5 1038.5L759.5 1007.5L759.5 976.5L759.5 945.5L759.5 914.5" stroke="url(&quot;#SvgjsLinearGradient1166&quot;)" stroke-width="5.17"></path><path d="M751.75 914.5 a7.75 7.75 0 1 0 15.5 0 a7.75 7.75 0 1 0 -15.5 0zM720.75 976.5 a7.75 7.75 0 1 0 15.5 0 a7.75 7.75 0 1 0 -15.5 0zM720.75 1162.5 a7.75 7.75 0 1 0 15.5 0 a7.75 7.75 0 1 0 -15.5 0zM720.75 1038.5 a7.75 7.75 0 1 0 15.5 0 a7.75 7.75 0 1 0 -15.5 0zM720.75 1193.5 a7.75 7.75 0 1 0 15.5 0 a7.75 7.75 0 1 0 -15.5 0z" fill="url(&quot;#SvgjsLinearGradient1166&quot;)"></path><path d="M1813.5 1472.5L1813.5 1441.5L1813.5 1410.5L1813.5 1379.5L1813.5 1348.5" stroke="url(&quot;#SvgjsLinearGradient1166&quot;)" stroke-width="5.17"></path><path d="M1805.75 1348.5 a7.75 7.75 0 1 0 15.5 0 a7.75 7.75 0 1 0 -15.5 0z" fill="url(&quot;#SvgjsLinearGradient1166&quot;)"></path><path d="M728.5 883.5L759.5 852.5L759.5 821.5M697.5 1100.5L728.5 1069.5M697.5 1131.5L728.5 1100.5M728.5 852.5L697.5 821.5M697.5 945.5L697.5 914.5L697.5 883.5M728.5 1472.5L728.5 1441.5L728.5 1410.5L728.5 1379.5L697.5 1348.5L697.5 1317.5L697.5 1286.5L697.5 1255.5L697.5 1224.5L697.5 1193.5L697.5 1162.5L697.5 1131.5L697.5 1100.5L697.5 1069.5L697.5 1038.5L697.5 1007.5L697.5 976.5L697.5 945.5L728.5 914.5L728.5 883.5L728.5 852.5L728.5 821.5" stroke="url(&quot;#SvgjsLinearGradient1166&quot;)" stroke-width="5.17"></path><path d="M720.75 821.5 a7.75 7.75 0 1 0 15.5 0 a7.75 7.75 0 1 0 -15.5 0zM751.75 821.5 a7.75 7.75 0 1 0 15.5 0 a7.75 7.75 0 1 0 -15.5 0zM720.75 1069.5 a7.75 7.75 0 1 0 15.5 0 a7.75 7.75 0 1 0 -15.5 0zM720.75 1100.5 a7.75 7.75 0 1 0 15.5 0 a7.75 7.75 0 1 0 -15.5 0zM689.75 821.5 a7.75 7.75 0 1 0 15.5 0 a7.75 7.75 0 1 0 -15.5 0zM689.75 883.5 a7.75 7.75 0 1 0 15.5 0 a7.75 7.75 0 1 0 -15.5 0z" fill="url(&quot;#SvgjsLinearGradient1166&quot;)"></path><path d="M1906.5 1162.5L1875.5 1131.5M1875.5 418.5L1906.5 387.5L1906.5 356.5M1875.5 1255.5L1875.5 1224.5L1875.5 1193.5L1875.5 1162.5M1844.5 1317.5L1844.5 1286.5M1875.5 790.5L1906.5 759.5L1906.5 728.5L1906.5 697.5M1875.5 976.5L1906.5 945.5L1906.5 914.5L1906.5 883.5L1906.5 852.5L1906.5 821.5L1906.5 790.5L1937.5 759.5L1937.5 728.5L1937.5 697.5L1937.5 666.5L1937.5 635.5M1875.5 635.5L1906.5 604.5M1875.5 573.5L1906.5 542.5L1906.5 511.5L1906.5 480.5L1906.5 449.5M1906.5 1007.5L1906.5 976.5M1844.5 1472.5L1844.5 1441.5L1844.5 1410.5L1844.5 1379.5L1844.5 1348.5L1844.5 1317.5L1875.5 1286.5L1875.5 1255.5L1906.5 1224.5L1906.5 1193.5L1906.5 1162.5L1906.5 1131.5L1906.5 1100.5L1906.5 1069.5L1906.5 1038.5L1906.5 1007.5L1875.5 976.5L1875.5 945.5L1875.5 914.5L1875.5 883.5L1875.5 852.5L1875.5 821.5L1875.5 790.5L1875.5 759.5L1875.5 728.5L1875.5 697.5L1875.5 666.5L1875.5 635.5L1875.5 604.5L1875.5 573.5L1875.5 542.5L1875.5 511.5L1875.5 480.5L1875.5 449.5L1875.5 418.5L1875.5 387.5" stroke="url(&quot;#SvgjsLinearGradient1166&quot;)" stroke-width="5.17"></path><path d="M1867.75 387.5 a7.75 7.75 0 1 0 15.5 0 a7.75 7.75 0 1 0 -15.5 0zM1867.75 1131.5 a7.75 7.75 0 1 0 15.5 0 a7.75 7.75 0 1 0 -15.5 0zM1898.75 356.5 a7.75 7.75 0 1 0 15.5 0 a7.75 7.75 0 1 0 -15.5 0zM1867.75 1162.5 a7.75 7.75 0 1 0 15.5 0 a7.75 7.75 0 1 0 -15.5 0zM1836.75 1286.5 a7.75 7.75 0 1 0 15.5 0 a7.75 7.75 0 1 0 -15.5 0zM1898.75 697.5 a7.75 7.75 0 1 0 15.5 0 a7.75 7.75 0 1 0 -15.5 0zM1929.75 635.5 a7.75 7.75 0 1 0 15.5 0 a7.75 7.75 0 1 0 -15.5 0zM1898.75 604.5 a7.75 7.75 0 1 0 15.5 0 a7.75 7.75 0 1 0 -15.5 0zM1898.75 449.5 a7.75 7.75 0 1 0 15.5 0 a7.75 7.75 0 1 0 -15.5 0zM1898.75 976.5 a7.75 7.75 0 1 0 15.5 0 a7.75 7.75 0 1 0 -15.5 0z" fill="url(&quot;#SvgjsLinearGradient1166&quot;)"></path><path d="M697.5 1472.5L697.5 1441.5L697.5 1410.5L697.5 1379.5L666.5 1348.5L666.5 1317.5L666.5 1286.5L666.5 1255.5L666.5 1224.5L666.5 1193.5L666.5 1162.5L666.5 1131.5L666.5 1100.5L666.5 1069.5L666.5 1038.5L666.5 1007.5L666.5 976.5L666.5 945.5" stroke="url(&quot;#SvgjsLinearGradient1166&quot;)" stroke-width="5.17"></path><path d="M658.75 945.5 a7.75 7.75 0 1 0 15.5 0 a7.75 7.75 0 1 0 -15.5 0z" fill="url(&quot;#SvgjsLinearGradient1166&quot;)"></path><path d="M1937.5 1069.5L1968.5 1038.5L1968.5 1007.5M1875.5 1379.5L1906.5 1348.5L1906.5 1317.5L1937.5 1286.5M1937.5 1224.5L1968.5 1193.5L1968.5 1162.5M1937.5 1131.5L1968.5 1100.5L1968.5 1069.5L1999.5 1038.5L1999.5 1007.5M1875.5 1441.5L1906.5 1410.5M1875.5 1472.5L1875.5 1441.5L1875.5 1410.5L1875.5 1379.5L1875.5 1348.5L1875.5 1317.5L1906.5 1286.5L1906.5 1255.5L1937.5 1224.5L1937.5 1193.5L1937.5 1162.5L1937.5 1131.5L1937.5 1100.5L1937.5 1069.5L1937.5 1038.5L1937.5 1007.5L1937.5 976.5L1937.5 945.5L1937.5 914.5L1937.5 883.5" stroke="url(&quot;#SvgjsLinearGradient1166&quot;)" stroke-width="5.17"></path><path d="M1929.75 883.5 a7.75 7.75 0 1 0 15.5 0 a7.75 7.75 0 1 0 -15.5 0zM1960.75 1007.5 a7.75 7.75 0 1 0 15.5 0 a7.75 7.75 0 1 0 -15.5 0zM1929.75 1286.5 a7.75 7.75 0 1 0 15.5 0 a7.75 7.75 0 1 0 -15.5 0zM1960.75 1162.5 a7.75 7.75 0 1 0 15.5 0 a7.75 7.75 0 1 0 -15.5 0zM1991.75 1007.5 a7.75 7.75 0 1 0 15.5 0 a7.75 7.75 0 1 0 -15.5 0zM1898.75 1410.5 a7.75 7.75 0 1 0 15.5 0 a7.75 7.75 0 1 0 -15.5 0z" fill="url(&quot;#SvgjsLinearGradient1166&quot;)"></path><path d="M635.5 1255.5L604.5 1224.5L573.5 1193.5L573.5 1162.5L573.5 1131.5M635.5 976.5L604.5 945.5L573.5 914.5M635.5 1069.5L604.5 1038.5L604.5 1007.5L604.5 976.5M635.5 1100.5L604.5 1069.5L573.5 1038.5L573.5 1007.5L573.5 976.5M666.5 1472.5L666.5 1441.5L666.5 1410.5L666.5 1379.5L635.5 1348.5L635.5 1317.5L635.5 1286.5L635.5 1255.5L635.5 1224.5L635.5 1193.5L635.5 1162.5L635.5 1131.5L635.5 1100.5L635.5 1069.5L635.5 1038.5L635.5 1007.5L635.5 976.5L635.5 945.5" stroke="url(&quot;#SvgjsLinearGradient1166&quot;)" stroke-width="5.17"></path><path d="M627.75 945.5 a7.75 7.75 0 1 0 15.5 0 a7.75 7.75 0 1 0 -15.5 0zM565.75 1131.5 a7.75 7.75 0 1 0 15.5 0 a7.75 7.75 0 1 0 -15.5 0zM565.75 914.5 a7.75 7.75 0 1 0 15.5 0 a7.75 7.75 0 1 0 -15.5 0zM596.75 976.5 a7.75 7.75 0 1 0 15.5 0 a7.75 7.75 0 1 0 -15.5 0zM565.75 976.5 a7.75 7.75 0 1 0 15.5 0 a7.75 7.75 0 1 0 -15.5 0z" fill="url(&quot;#SvgjsLinearGradient1166&quot;)"></path></g></g><defs><mask id="SvgjsMask1165"><rect width="2560" height="1440" fill="#ffffff"></rect></mask><linearGradient x1="0" y1="799.2" x2="2560" y2="799.2" gradientUnits="userSpaceOnUse" id="SvgjsLinearGradient1166"><stop stop-color="#3a7cc3" offset="0"></stop><stop stop-color="#dd1133" offset="1"></stop></linearGradient><mask id="SvgjsMask1167"><rect width="2560" height="1440" fill="white"></rect><path d="M1282.62 914.5 a3.88 3.88 0 1 0 7.76 0 a3.88 3.88 0 1 0 -7.76 0zM1282.62 1286.5 a3.88 3.88 0 1 0 7.76 0 a3.88 3.88 0 1 0 -7.76 0zM1313.62 945.5 a3.88 3.88 0 1 0 7.76 0 a3.88 3.88 0 1 0 -7.76 0zM1251.62 852.5 a3.88 3.88 0 1 0 7.76 0 a3.88 3.88 0 1 0 -7.76 0zM1313.62 1255.5 a3.88 3.88 0 1 0 7.76 0 a3.88 3.88 0 1 0 -7.76 0z" fill="black"></path><path d="M1220.62 1410.5 a3.88 3.88 0 1 0 7.76 0 a3.88 3.88 0 1 0 -7.76 0zM1251.62 1348.5 a3.88 3.88 0 1 0 7.76 0 a3.88 3.88 0 1 0 -7.76 0z" fill="black"></path><path d="M1344.62 1038.5 a3.88 3.88 0 1 0 7.76 0 a3.88 3.88 0 1 0 -7.76 0zM1313.62 1193.5 a3.88 3.88 0 1 0 7.76 0 a3.88 3.88 0 1 0 -7.76 0zM1313.62 1038.5 a3.88 3.88 0 1 0 7.76 0 a3.88 3.88 0 1 0 -7.76 0zM1313.62 1379.5 a3.88 3.88 0 1 0 7.76 0 a3.88 3.88 0 1 0 -7.76 0z" fill="black"></path><path d="M1375.62 697.5 a3.88 3.88 0 1 0 7.76 0 a3.88 3.88 0 1 0 -7.76 0zM1406.62 573.5 a3.88 3.88 0 1 0 7.76 0 a3.88 3.88 0 1 0 -7.76 0zM1313.62 635.5 a3.88 3.88 0 1 0 7.76 0 a3.88 3.88 0 1 0 -7.76 0zM1406.62 852.5 a3.88 3.88 0 1 0 7.76 0 a3.88 3.88 0 1 0 -7.76 0zM1375.62 852.5 a3.88 3.88 0 1 0 7.76 0 a3.88 3.88 0 1 0 -7.76 0zM1344.62 852.5 a3.88 3.88 0 1 0 7.76 0 a3.88 3.88 0 1 0 -7.76 0zM1406.62 697.5 a3.88 3.88 0 1 0 7.76 0 a3.88 3.88 0 1 0 -7.76 0z" fill="black"></path><path d="M1158.62 945.5 a3.88 3.88 0 1 0 7.76 0 a3.88 3.88 0 1 0 -7.76 0zM1189.62 1038.5 a3.88 3.88 0 1 0 7.76 0 a3.88 3.88 0 1 0 -7.76 0zM1220.62 1007.5 a3.88 3.88 0 1 0 7.76 0 a3.88 3.88 0 1 0 -7.76 0zM1189.62 1379.5 a3.88 3.88 0 1 0 7.76 0 a3.88 3.88 0 1 0 -7.76 0zM1189.62 1255.5 a3.88 3.88 0 1 0 7.76 0 a3.88 3.88 0 1 0 -7.76 0z" fill="black"></path><path d="M1468.62 542.5 a3.88 3.88 0 1 0 7.76 0 a3.88 3.88 0 1 0 -7.76 0zM1499.62 666.5 a3.88 3.88 0 1 0 7.76 0 a3.88 3.88 0 1 0 -7.76 0zM1499.62 976.5 a3.88 3.88 0 1 0 7.76 0 a3.88 3.88 0 1 0 -7.76 0zM1437.62 976.5 a3.88 3.88 0 1 0 7.76 0 a3.88 3.88 0 1 0 -7.76 0zM1499.62 480.5 a3.88 3.88 0 1 0 7.76 0 a3.88 3.88 0 1 0 -7.76 0zM1499.62 914.5 a3.88 3.88 0 1 0 7.76 0 a3.88 3.88 0 1 0 -7.76 0zM1437.62 573.5 a3.88 3.88 0 1 0 7.76 0 a3.88 3.88 0 1 0 -7.76 0zM1499.62 573.5 a3.88 3.88 0 1 0 7.76 0 a3.88 3.88 0 1 0 -7.76 0z" fill="black"></path><path d="M1127.62 1255.5 a3.88 3.88 0 1 0 7.76 0 a3.88 3.88 0 1 0 -7.76 0z" fill="black"></path><path d="M1468.62 1162.5 a3.88 3.88 0 1 0 7.76 0 a3.88 3.88 0 1 0 -7.76 0zM1437.62 1162.5 a3.88 3.88 0 1 0 7.76 0 a3.88 3.88 0 1 0 -7.76 0zM1499.62 1100.5 a3.88 3.88 0 1 0 7.76 0 a3.88 3.88 0 1 0 -7.76 0zM1468.62 1224.5 a3.88 3.88 0 1 0 7.76 0 a3.88 3.88 0 1 0 -7.76 0z" fill="black"></path><path d="M1127.62 1100.5 a3.88 3.88 0 1 0 7.76 0 a3.88 3.88 0 1 0 -7.76 0zM1065.62 1286.5 a3.88 3.88 0 1 0 7.76 0 a3.88 3.88 0 1 0 -7.76 0zM1096.62 1193.5 a3.88 3.88 0 1 0 7.76 0 a3.88 3.88 0 1 0 -7.76 0zM1096.62 1100.5 a3.88 3.88 0 1 0 7.76 0 a3.88 3.88 0 1 0 -7.76 0z" fill="black"></path><path d="M1499.62 356.5 a3.88 3.88 0 1 0 7.76 0 a3.88 3.88 0 1 0 -7.76 0zM1499.62 1193.5 a3.88 3.88 0 1 0 7.76 0 a3.88 3.88 0 1 0 -7.76 0zM1561.62 821.5 a3.88 3.88 0 1 0 7.76 0 a3.88 3.88 0 1 0 -7.76 0zM1561.62 480.5 a3.88 3.88 0 1 0 7.76 0 a3.88 3.88 0 1 0 -7.76 0zM1468.62 356.5 a3.88 3.88 0 1 0 7.76 0 a3.88 3.88 0 1 0 -7.76 0zM1592.62 821.5 a3.88 3.88 0 1 0 7.76 0 a3.88 3.88 0 1 0 -7.76 0zM1468.62 1317.5 a3.88 3.88 0 1 0 7.76 0 a3.88 3.88 0 1 0 -7.76 0zM1530.62 449.5 a3.88 3.88 0 1 0 7.76 0 a3.88 3.88 0 1 0 -7.76 0zM1530.62 1131.5 a3.88 3.88 0 1 0 7.76 0 a3.88 3.88 0 1 0 -7.76 0zM1561.62 914.5 a3.88 3.88 0 1 0 7.76 0 a3.88 3.88 0 1 0 -7.76 0z" fill="black"></path><path d="M1065.62 1379.5 a3.88 3.88 0 1 0 7.76 0 a3.88 3.88 0 1 0 -7.76 0z" fill="black"></path><path d="M1592.62 1038.5 a3.88 3.88 0 1 0 7.76 0 a3.88 3.88 0 1 0 -7.76 0zM1592.62 945.5 a3.88 3.88 0 1 0 7.76 0 a3.88 3.88 0 1 0 -7.76 0z" fill="black"></path><path d="M1065.62 1441.5 a3.88 3.88 0 1 0 7.76 0 a3.88 3.88 0 1 0 -7.76 0z" fill="black"></path><path d="M1654.62 852.5 a3.88 3.88 0 1 0 7.76 0 a3.88 3.88 0 1 0 -7.76 0zM1685.62 728.5 a3.88 3.88 0 1 0 7.76 0 a3.88 3.88 0 1 0 -7.76 0zM1592.62 1255.5 a3.88 3.88 0 1 0 7.76 0 a3.88 3.88 0 1 0 -7.76 0zM1623.62 1193.5 a3.88 3.88 0 1 0 7.76 0 a3.88 3.88 0 1 0 -7.76 0zM1654.62 914.5 a3.88 3.88 0 1 0 7.76 0 a3.88 3.88 0 1 0 -7.76 0zM1654.62 945.5 a3.88 3.88 0 1 0 7.76 0 a3.88 3.88 0 1 0 -7.76 0z" fill="black"></path><path d="M1096.62 1069.5 a3.88 3.88 0 1 0 7.76 0 a3.88 3.88 0 1 0 -7.76 0zM1034.62 1162.5 a3.88 3.88 0 1 0 7.76 0 a3.88 3.88 0 1 0 -7.76 0zM1065.62 976.5 a3.88 3.88 0 1 0 7.76 0 a3.88 3.88 0 1 0 -7.76 0zM1096.62 1131.5 a3.88 3.88 0 1 0 7.76 0 a3.88 3.88 0 1 0 -7.76 0z" fill="black"></path><path d="M1561.62 1410.5 a3.88 3.88 0 1 0 7.76 0 a3.88 3.88 0 1 0 -7.76 0z" fill="black"></path><path d="M1065.62 821.5 a3.88 3.88 0 1 0 7.76 0 a3.88 3.88 0 1 0 -7.76 0zM1003.62 945.5 a3.88 3.88 0 1 0 7.76 0 a3.88 3.88 0 1 0 -7.76 0zM1096.62 790.5 a3.88 3.88 0 1 0 7.76 0 a3.88 3.88 0 1 0 -7.76 0zM1034.62 759.5 a3.88 3.88 0 1 0 7.76 0 a3.88 3.88 0 1 0 -7.76 0zM1003.62 1038.5 a3.88 3.88 0 1 0 7.76 0 a3.88 3.88 0 1 0 -7.76 0zM1003.62 1069.5 a3.88 3.88 0 1 0 7.76 0 a3.88 3.88 0 1 0 -7.76 0z" fill="black"></path><path d="M1685.62 914.5 a3.88 3.88 0 1 0 7.76 0 a3.88 3.88 0 1 0 -7.76 0zM1654.62 976.5 a3.88 3.88 0 1 0 7.76 0 a3.88 3.88 0 1 0 -7.76 0zM1592.62 1348.5 a3.88 3.88 0 1 0 7.76 0 a3.88 3.88 0 1 0 -7.76 0zM1623.62 1224.5 a3.88 3.88 0 1 0 7.76 0 a3.88 3.88 0 1 0 -7.76 0z" fill="black"></path><path d="M1003.62 852.5 a3.88 3.88 0 1 0 7.76 0 a3.88 3.88 0 1 0 -7.76 0zM941.62 1317.5 a3.88 3.88 0 1 0 7.76 0 a3.88 3.88 0 1 0 -7.76 0zM941.62 883.5 a3.88 3.88 0 1 0 7.76 0 a3.88 3.88 0 1 0 -7.76 0zM941.62 1007.5 a3.88 3.88 0 1 0 7.76 0 a3.88 3.88 0 1 0 -7.76 0zM941.62 1100.5 a3.88 3.88 0 1 0 7.76 0 a3.88 3.88 0 1 0 -7.76 0zM910.62 945.5 a3.88 3.88 0 1 0 7.76 0 a3.88 3.88 0 1 0 -7.76 0z" fill="black"></path><path d="M1716.62 914.5 a3.88 3.88 0 1 0 7.76 0 a3.88 3.88 0 1 0 -7.76 0zM1685.62 1007.5 a3.88 3.88 0 1 0 7.76 0 a3.88 3.88 0 1 0 -7.76 0zM1716.62 1100.5 a3.88 3.88 0 1 0 7.76 0 a3.88 3.88 0 1 0 -7.76 0zM1716.62 1038.5 a3.88 3.88 0 1 0 7.76 0 a3.88 3.88 0 1 0 -7.76 0z" fill="black"></path><path d="M910.62 1317.5 a3.88 3.88 0 1 0 7.76 0 a3.88 3.88 0 1 0 -7.76 0z" fill="black"></path><path d="M1654.62 325.5 a3.88 3.88 0 1 0 7.76 0 a3.88 3.88 0 1 0 -7.76 0zM1747.62 821.5 a3.88 3.88 0 1 0 7.76 0 a3.88 3.88 0 1 0 -7.76 0zM1716.62 232.5 a3.88 3.88 0 1 0 7.76 0 a3.88 3.88 0 1 0 -7.76 0zM1747.62 449.5 a3.88 3.88 0 1 0 7.76 0 a3.88 3.88 0 1 0 -7.76 0zM1623.62 294.5 a3.88 3.88 0 1 0 7.76 0 a3.88 3.88 0 1 0 -7.76 0zM1747.62 511.5 a3.88 3.88 0 1 0 7.76 0 a3.88 3.88 0 1 0 -7.76 0zM1747.62 542.5 a3.88 3.88 0 1 0 7.76 0 a3.88 3.88 0 1 0 -7.76 0zM1778.62 449.5 a3.88 3.88 0 1 0 7.76 0 a3.88 3.88 0 1 0 -7.76 0zM1778.62 573.5 a3.88 3.88 0 1 0 7.76 0 a3.88 3.88 0 1 0 -7.76 0zM1592.62 232.5 a3.88 3.88 0 1 0 7.76 0 a3.88 3.88 0 1 0 -7.76 0z" fill="black"></path><path d="M848.62 1193.5 a3.88 3.88 0 1 0 7.76 0 a3.88 3.88 0 1 0 -7.76 0zM910.62 1162.5 a3.88 3.88 0 1 0 7.76 0 a3.88 3.88 0 1 0 -7.76 0zM941.62 1193.5 a3.88 3.88 0 1 0 7.76 0 a3.88 3.88 0 1 0 -7.76 0zM879.62 1286.5 a3.88 3.88 0 1 0 7.76 0 a3.88 3.88 0 1 0 -7.76 0z" fill="black"></path><path d="M786.62 387.5 a3.88 3.88 0 1 0 7.76 0 a3.88 3.88 0 1 0 -7.76 0zM879.62 666.5 a3.88 3.88 0 1 0 7.76 0 a3.88 3.88 0 1 0 -7.76 0zM786.62 821.5 a3.88 3.88 0 1 0 7.76 0 a3.88 3.88 0 1 0 -7.76 0zM817.62 1379.5 a3.88 3.88 0 1 0 7.76 0 a3.88 3.88 0 1 0 -7.76 0zM817.62 976.5 a3.88 3.88 0 1 0 7.76 0 a3.88 3.88 0 1 0 -7.76 0zM817.62 1007.5 a3.88 3.88 0 1 0 7.76 0 a3.88 3.88 0 1 0 -7.76 0zM724.62 418.5 a3.88 3.88 0 1 0 7.76 0 a3.88 3.88 0 1 0 -7.76 0zM910.62 790.5 a3.88 3.88 0 1 0 7.76 0 a3.88 3.88 0 1 0 -7.76 0zM755.62 387.5 a3.88 3.88 0 1 0 7.76 0 a3.88 3.88 0 1 0 -7.76 0zM817.62 356.5 a3.88 3.88 0 1 0 7.76 0 a3.88 3.88 0 1 0 -7.76 0z" fill="black"></path><path d="M1654.62 1441.5 a3.88 3.88 0 1 0 7.76 0 a3.88 3.88 0 1 0 -7.76 0z" fill="black"></path><path d="M817.62 1441.5 a3.88 3.88 0 1 0 7.76 0 a3.88 3.88 0 1 0 -7.76 0z" fill="black"></path><path d="M1716.62 1410.5 a3.88 3.88 0 1 0 7.76 0 a3.88 3.88 0 1 0 -7.76 0zM1685.62 1410.5 a3.88 3.88 0 1 0 7.76 0 a3.88 3.88 0 1 0 -7.76 0z" fill="black"></path><path d="M1809.62 418.5 a3.88 3.88 0 1 0 7.76 0 a3.88 3.88 0 1 0 -7.76 0zM1778.62 666.5 a3.88 3.88 0 1 0 7.76 0 a3.88 3.88 0 1 0 -7.76 0zM1747.62 1162.5 a3.88 3.88 0 1 0 7.76 0 a3.88 3.88 0 1 0 -7.76 0zM1716.62 1255.5 a3.88 3.88 0 1 0 7.76 0 a3.88 3.88 0 1 0 -7.76 0zM1747.62 759.5 a3.88 3.88 0 1 0 7.76 0 a3.88 3.88 0 1 0 -7.76 0z" fill="black"></path><path d="M786.62 914.5 a3.88 3.88 0 1 0 7.76 0 a3.88 3.88 0 1 0 -7.76 0zM755.62 1255.5 a3.88 3.88 0 1 0 7.76 0 a3.88 3.88 0 1 0 -7.76 0zM755.62 1286.5 a3.88 3.88 0 1 0 7.76 0 a3.88 3.88 0 1 0 -7.76 0zM817.62 1069.5 a3.88 3.88 0 1 0 7.76 0 a3.88 3.88 0 1 0 -7.76 0zM755.62 1317.5 a3.88 3.88 0 1 0 7.76 0 a3.88 3.88 0 1 0 -7.76 0z" fill="black"></path><path d="M1778.62 232.5 a3.88 3.88 0 1 0 7.76 0 a3.88 3.88 0 1 0 -7.76 0zM1840.62 852.5 a3.88 3.88 0 1 0 7.76 0 a3.88 3.88 0 1 0 -7.76 0zM1840.62 883.5 a3.88 3.88 0 1 0 7.76 0 a3.88 3.88 0 1 0 -7.76 0zM1840.62 697.5 a3.88 3.88 0 1 0 7.76 0 a3.88 3.88 0 1 0 -7.76 0zM1840.62 1007.5 a3.88 3.88 0 1 0 7.76 0 a3.88 3.88 0 1 0 -7.76 0zM1747.62 232.5 a3.88 3.88 0 1 0 7.76 0 a3.88 3.88 0 1 0 -7.76 0zM1840.62 1255.5 a3.88 3.88 0 1 0 7.76 0 a3.88 3.88 0 1 0 -7.76 0zM1809.62 263.5 a3.88 3.88 0 1 0 7.76 0 a3.88 3.88 0 1 0 -7.76 0zM1840.62 263.5 a3.88 3.88 0 1 0 7.76 0 a3.88 3.88 0 1 0 -7.76 0zM1871.62 1007.5 a3.88 3.88 0 1 0 7.76 0 a3.88 3.88 0 1 0 -7.76 0zM1871.62 1100.5 a3.88 3.88 0 1 0 7.76 0 a3.88 3.88 0 1 0 -7.76 0z" fill="black"></path><path d="M755.62 914.5 a3.88 3.88 0 1 0 7.76 0 a3.88 3.88 0 1 0 -7.76 0zM724.62 976.5 a3.88 3.88 0 1 0 7.76 0 a3.88 3.88 0 1 0 -7.76 0zM724.62 1162.5 a3.88 3.88 0 1 0 7.76 0 a3.88 3.88 0 1 0 -7.76 0zM724.62 1038.5 a3.88 3.88 0 1 0 7.76 0 a3.88 3.88 0 1 0 -7.76 0zM724.62 1193.5 a3.88 3.88 0 1 0 7.76 0 a3.88 3.88 0 1 0 -7.76 0z" fill="black"></path><path d="M1809.62 1348.5 a3.88 3.88 0 1 0 7.76 0 a3.88 3.88 0 1 0 -7.76 0z" fill="black"></path><path d="M724.62 821.5 a3.88 3.88 0 1 0 7.76 0 a3.88 3.88 0 1 0 -7.76 0zM755.62 821.5 a3.88 3.88 0 1 0 7.76 0 a3.88 3.88 0 1 0 -7.76 0zM724.62 1069.5 a3.88 3.88 0 1 0 7.76 0 a3.88 3.88 0 1 0 -7.76 0zM724.62 1100.5 a3.88 3.88 0 1 0 7.76 0 a3.88 3.88 0 1 0 -7.76 0zM693.62 821.5 a3.88 3.88 0 1 0 7.76 0 a3.88 3.88 0 1 0 -7.76 0zM693.62 883.5 a3.88 3.88 0 1 0 7.76 0 a3.88 3.88 0 1 0 -7.76 0z" fill="black"></path><path d="M1871.62 387.5 a3.88 3.88 0 1 0 7.76 0 a3.88 3.88 0 1 0 -7.76 0zM1871.62 1131.5 a3.88 3.88 0 1 0 7.76 0 a3.88 3.88 0 1 0 -7.76 0zM1902.62 356.5 a3.88 3.88 0 1 0 7.76 0 a3.88 3.88 0 1 0 -7.76 0zM1871.62 1162.5 a3.88 3.88 0 1 0 7.76 0 a3.88 3.88 0 1 0 -7.76 0zM1840.62 1286.5 a3.88 3.88 0 1 0 7.76 0 a3.88 3.88 0 1 0 -7.76 0zM1902.62 697.5 a3.88 3.88 0 1 0 7.76 0 a3.88 3.88 0 1 0 -7.76 0zM1933.62 635.5 a3.88 3.88 0 1 0 7.76 0 a3.88 3.88 0 1 0 -7.76 0zM1902.62 604.5 a3.88 3.88 0 1 0 7.76 0 a3.88 3.88 0 1 0 -7.76 0zM1902.62 449.5 a3.88 3.88 0 1 0 7.76 0 a3.88 3.88 0 1 0 -7.76 0zM1902.62 976.5 a3.88 3.88 0 1 0 7.76 0 a3.88 3.88 0 1 0 -7.76 0z" fill="black"></path><path d="M662.62 945.5 a3.88 3.88 0 1 0 7.76 0 a3.88 3.88 0 1 0 -7.76 0z" fill="black"></path><path d="M1933.62 883.5 a3.88 3.88 0 1 0 7.76 0 a3.88 3.88 0 1 0 -7.76 0zM1964.62 1007.5 a3.88 3.88 0 1 0 7.76 0 a3.88 3.88 0 1 0 -7.76 0zM1933.62 1286.5 a3.88 3.88 0 1 0 7.76 0 a3.88 3.88 0 1 0 -7.76 0zM1964.62 1162.5 a3.88 3.88 0 1 0 7.76 0 a3.88 3.88 0 1 0 -7.76 0zM1995.62 1007.5 a3.88 3.88 0 1 0 7.76 0 a3.88 3.88 0 1 0 -7.76 0zM1902.62 1410.5 a3.88 3.88 0 1 0 7.76 0 a3.88 3.88 0 1 0 -7.76 0z" fill="black"></path><path d="M631.62 945.5 a3.88 3.88 0 1 0 7.76 0 a3.88 3.88 0 1 0 -7.76 0zM569.62 1131.5 a3.88 3.88 0 1 0 7.76 0 a3.88 3.88 0 1 0 -7.76 0zM569.62 914.5 a3.88 3.88 0 1 0 7.76 0 a3.88 3.88 0 1 0 -7.76 0zM600.62 976.5 a3.88 3.88 0 1 0 7.76 0 a3.88 3.88 0 1 0 -7.76 0zM569.62 976.5 a3.88 3.88 0 1 0 7.76 0 a3.88 3.88 0 1 0 -7.76 0z" fill="black"></path></mask></defs></svg>